ply
format ascii 1.0
comment VCGLIB generated
comment TextureFile compass.png
element vertex 202
property float x
property float y
property float z
property float texture_u
property float texture_v
element face 400
property list uchar int vertex_indices
end_header
0 0.09301 0 0.5 0.5
5.018 0.09301 0 1.043 0.5
4.773 0.09301 -1.551 1.017 0.6679
4.06 0.09301 -2.95 0.9397 0.8195
2.95 0.09301 -4.06 0.8194 0.9397
1.551 0.09301 -4.773 0.6679 1.017
0 0.09301 -5.018 0.5 1.043
-1.551 0.09301 -4.773 0.3321 1.017
-2.95 0.09301 -4.06 0.1806 0.9397
-4.06 0.09301 -2.95 0.06031 0.8195
-4.773 0.09301 -1.551 -0.01688 0.6679
-5.018 0.09301 0 -0.04348 0.5
-4.773 0.09301 1.551 -0.01688 0.3321
-4.06 0.09301 2.95 0.06031 0.1806
-2.95 0.09301 4.06 0.1806 0.06031
-1.551 0.09301 4.773 0.3321 -0.01688
0 0.09301 5.018 0.5 -0.04348
1.551 0.09301 4.773 0.6679 -0.01688
2.95 0.09301 4.06 0.8195 0.06032
4.06 0.09301 2.95 0.9397 0.1806
4.773 0.09301 1.551 1.017 0.3321
10.04 0.09301 0 1.063 0.5
9.545 0.09301 -3.101 1.036 0.674
8.12 0.09301 -5.899 0.9556 0.831
5.899 0.09301 -8.12 0.831 0.9556
3.101 0.09301 -9.545 0.674 1.036
0 0.09301 -10.04 0.5 1.063
-3.101 0.09301 -9.545 0.326 1.036
-5.899 0.09301 -8.12 0.169 0.9556
-8.12 0.09301 -5.899 0.04437 0.831
-9.545 0.09301 -3.101 -0.03563 0.674
-10.04 0.09301 0 -0.06319 0.5
-9.545 0.09301 3.101 -0.03563 0.326
-8.12 0.09301 5.899 0.04437 0.169
-5.899 0.09301 8.12 0.169 0.04437
-3.101 0.09301 9.545 0.326 -0.03563
1.072e-005 0.09301 10.04 0.5 -0.06319
3.101 0.09301 9.545 0.674 -0.03563
5.899 0.09301 8.12 0.831 0.04437
8.12 0.09301 5.899 0.9556 0.169
9.545 0.09301 3.101 1.036 0.326
15.05 0.09301 0 1.059 0.5
14.32 0.09301 -4.652 1.032 0.6729
12.18 0.09301 -8.849 0.9526 0.8288
8.849 0.09301 -12.18 0.8288 0.9526
4.652 0.09301 -14.32 0.6729 1.032
0 0.09301 -15.05 0.5 1.059
-4.652 0.09301 -14.32 0.3271 1.032
-8.849 0.09301 -12.18 0.1712 0.9526
-12.18 0.09301 -8.849 0.04739 0.8288
-14.32 0.09301 -4.652 -0.03208 0.6729
-15.05 0.09301 0 -0.05946 0.5
-14.32 0.09301 4.652 -0.03208 0.3271
-12.18 0.09301 8.849 0.04739 0.1712
-8.849 0.09301 12.18 0.1712 0.04739
-4.652 0.09301 14.32 0.3271 -0.03208
1.556e-005 0.09301 15.05 0.5 -0.05946
4.652 0.09301 14.32 0.6729 -0.03208
8.849 0.09301 12.18 0.8288 0.04739
12.18 0.09301 8.849 0.9526 0.1712
14.32 0.09301 4.652 1.032 0.3271
17.53 1.846 0 1.019 0.5
16.67 1.846 -5.417 0.9933 0.6603
14.18 1.846 -10.3 0.9196 0.8049
10.3 1.846 -14.18 0.8049 0.9196
5.417 1.846 -16.67 0.6603 0.9933
0 1.846 -17.53 0.5 1.019
-5.417 1.846 -16.67 0.3397 0.9933
-10.3 1.846 -14.18 0.1951 0.9196
-14.18 1.846 -10.3 0.08037 0.8049
-16.67 1.846 -5.417 0.0067 0.6603
-17.53 1.846 0 -0.01869 0.5
-16.67 1.846 5.417 0.0067 0.3397
-14.18 1.846 10.3 0.08037 0.1951
-10.3 1.846 14.18 0.1951 0.08037
-5.417 1.846 16.67 0.3397 0.0067
1.748e-005 1.846 17.53 0.5 -0.01869
5.417 1.846 16.67 0.6603 0.0067
10.3 1.846 14.18 0.8049 0.08037
14.18 1.846 10.3 0.9196 0.1951
16.67 1.846 5.417 0.9933 0.3397
19.08 3.87 0 0.9253 0.5
18.14 3.87 -5.895 0.9044 0.6314
15.43 3.87 -11.21 0.844 0.75
11.21 3.87 -15.43 0.75 0.844
5.895 3.87 -18.14 0.6314 0.9044
0 3.87 -19.08 0.5 0.9253
-5.895 3.87 -18.14 0.3686 0.9044
-11.21 3.87 -15.43 0.25 0.844
-15.43 3.87 -11.21 0.156 0.75
-18.14 3.87 -5.895 0.09556 0.6314
-19.08 3.87 0 0.07475 0.5
-18.14 3.87 5.895 0.09556 0.3686
-15.43 3.87 11.21 0.156 0.25
-11.21 3.87 15.43 0.25 0.156
-5.895 3.87 18.14 0.3686 0.09556
1.862e-005 3.87 19.08 0.5 0.07475
5.895 3.87 18.14 0.6314 0.09556
11.21 3.87 15.43 0.75 0.156
15.43 3.87 11.21 0.844 0.25
18.14 3.87 5.895 0.9044 0.3686
20 6 0 0.8699 0.5
19.02 6 -6.18 0.8518 0.6143
16.18 6 -11.76 0.7993 0.7174
11.76 6 -16.18 0.7174 0.7993
6.18 6 -19.02 0.6143 0.8518
0 6 -20 0.5 0.8699
-6.18 6 -19.02 0.3857 0.8518
-11.76 6 -16.18 0.2826 0.7993
-16.18 6 -11.76 0.2007 0.7174
-19.02 6 -6.18 0.1482 0.6143
-20 6 0 0.1301 0.5
-19.02 6 6.18 0.1482 0.3857
-16.18 6 11.76 0.2007 0.2826
-11.76 6 16.18 0.2826 0.2007
-6.18 6 19.02 0.3857 0.1482
1.931e-005 6 20 0.5 0.1301
6.18 6 19.02 0.6143 0.1482
11.76 6 16.18 0.7174 0.2007
16.18 6 11.76 0.7993 0.2826
19.02 6 6.18 0.8518 0.3857
20 8 0 0.846 0.5
19.02 8 -6.18 0.8291 0.6069
16.18 8 -11.76 0.7799 0.7034
11.76 8 -16.18 0.7034 0.7799
6.18 8 -19.02 0.6069 0.8291
0 8 -20 0.5 0.846
-6.18 8 -19.02 0.3931 0.8291
-11.76 8 -16.18 0.2966 0.7799
-16.18 8 -11.76 0.2201 0.7034
-19.02 8 -6.18 0.1709 0.6069
-20 8 0 0.154 0.5
-19.02 8 6.18 0.1709 0.3931
-16.18 8 11.76 0.2201 0.2966
-11.76 8 16.18 0.2966 0.2201
-6.18 8 19.02 0.3931 0.1709
1.931e-005 8 20 0.5 0.154
6.18 8 19.02 0.6069 0.1709
11.76 8 16.18 0.7034 0.2201
16.18 8 11.76 0.7799 0.2966
19.02 8 6.18 0.8291 0.3931
19.25 10 0 0.7968 0.5
18.31 10 -5.95 0.7823 0.5917
15.58 10 -11.32 0.7401 0.6744
11.32 10 -15.58 0.6744 0.7401
5.95 10 -18.31 0.5917 0.7823
0 10 -19.25 0.5 0.7968
-5.95 10 -18.31 0.4083 0.7823
-11.32 10 -15.58 0.3256 0.7401
-15.58 10 -11.32 0.2599 0.6744
-18.31 10 -5.95 0.2177 0.5917
-19.25 10 0 0.2032 0.5
-18.31 10 5.95 0.2177 0.4083
-15.58 10 11.32 0.2599 0.3256
-11.32 10 15.58 0.3256 0.2599
-5.95 10 18.31 0.4083 0.2177
1.873e-005 10 19.25 0.5 0.2032
5.95 10 18.31 0.5917 0.2177
11.32 10 15.58 0.6744 0.2599
15.58 10 11.32 0.7401 0.3256
18.31 10 5.95 0.7823 0.4083
17.8 10 0 0.8118 0.5
16.93 10 -5.502 0.7966 0.5964
14.4 10 -10.47 0.7523 0.6833
10.47 10 -14.4 0.6833 0.7523
5.502 10 -16.93 0.5964 0.7966
0 10 -17.8 0.5 0.8118
-5.502 10 -16.93 0.4036 0.7966
-10.47 10 -14.4 0.3167 0.7523
-14.4 10 -10.47 0.2477 0.6833
-16.93 10 -5.502 0.2034 0.5964
-17.8 10 0 0.1882 0.5
-16.93 10 5.502 0.2034 0.4036
-14.4 10 10.47 0.2477 0.3167
-10.47 10 14.4 0.3167 0.2477
-5.502 10 16.93 0.4036 0.2034
1.628e-005 10 17.8 0.5 0.1882
5.502 10 16.93 0.5964 0.2034
10.47 10 14.4 0.6833 0.2477
14.4 10 10.47 0.7523 0.3167
16.93 10 5.502 0.7966 0.4036
16.4 8.555 0 0.7824 0.5
15.59 8.555 -5.066 0.7686 0.5873
13.26 8.555 -9.637 0.7285 0.666
9.637 8.555 -13.26 0.666 0.7285
5.066 8.555 -15.59 0.5873 0.7686
0 8.555 -16.4 0.5 0.7824
-5.066 8.555 -15.59 0.4127 0.7686
-9.637 8.555 -13.26 0.334 0.7285
-13.26 8.555 -9.637 0.2715 0.666
-15.59 8.555 -5.066 0.2314 0.5873
-16.4 8.555 0 0.2176 0.5
-15.59 8.555 5.066 0.2314 0.4127
-13.26 8.555 9.637 0.2715 0.334
-9.637 8.555 13.26 0.334 0.2715
-5.066 8.555 15.59 0.4127 0.2314
1.255e-005 8.555 16.4 0.5 0.2176
5.066 8.555 15.59 0.5873 0.2314
9.637 8.555 13.26 0.666 0.2715
13.26 8.555 9.637 0.7285 0.334
15.59 8.555 5.066 0.7686 0.4127
0 8.555 0 0.5 0.5
3 0 2 1 
3 0 3 2 
3 0 4 3 
3 0 5 4 
3 0 6 5 
3 0 7 6 
3 0 8 7 
3 0 9 8 
3 0 10 9 
3 0 11 10 
3 0 12 11 
3 0 13 12 
3 0 14 13 
3 0 15 14 
3 0 16 15 
3 0 17 16 
3 0 18 17 
3 0 19 18 
3 0 20 19 
3 0 1 20 
3 1 22 21 
3 1 2 22 
3 2 23 22 
3 2 3 23 
3 3 24 23 
3 3 4 24 
3 4 25 24 
3 4 5 25 
3 5 26 25 
3 5 6 26 
3 6 27 26 
3 6 7 27 
3 7 28 27 
3 7 8 28 
3 8 29 28 
3 8 9 29 
3 9 30 29 
3 9 10 30 
3 10 31 30 
3 10 11 31 
3 11 32 31 
3 11 12 32 
3 12 33 32 
3 12 13 33 
3 13 34 33 
3 13 14 34 
3 14 35 34 
3 14 15 35 
3 15 36 35 
3 15 16 36 
3 16 37 36 
3 16 17 37 
3 17 38 37 
3 17 18 38 
3 18 39 38 
3 18 19 39 
3 19 40 39 
3 19 20 40 
3 20 21 40 
3 20 1 21 
3 21 42 41 
3 21 22 42 
3 22 43 42 
3 22 23 43 
3 23 44 43 
3 23 24 44 
3 24 45 44 
3 24 25 45 
3 25 46 45 
3 25 26 46 
3 26 47 46 
3 26 27 47 
3 27 48 47 
3 27 28 48 
3 28 49 48 
3 28 29 49 
3 29 50 49 
3 29 30 50 
3 30 51 50 
3 30 31 51 
3 31 52 51 
3 31 32 52 
3 32 53 52 
3 32 33 53 
3 33 54 53 
3 33 34 54 
3 34 55 54 
3 34 35 55 
3 35 56 55 
3 35 36 56 
3 36 57 56 
3 36 37 57 
3 37 58 57 
3 37 38 58 
3 38 59 58 
3 38 39 59 
3 39 60 59 
3 39 40 60 
3 40 41 60 
3 40 21 41 
3 41 62 61 
3 41 42 62 
3 42 63 62 
3 42 43 63 
3 43 64 63 
3 43 44 64 
3 44 65 64 
3 44 45 65 
3 45 66 65 
3 45 46 66 
3 46 67 66 
3 46 47 67 
3 47 68 67 
3 47 48 68 
3 48 69 68 
3 48 49 69 
3 49 70 69 
3 49 50 70 
3 50 71 70 
3 50 51 71 
3 51 72 71 
3 51 52 72 
3 52 73 72 
3 52 53 73 
3 53 74 73 
3 53 54 74 
3 54 75 74 
3 54 55 75 
3 55 76 75 
3 55 56 76 
3 56 77 76 
3 56 57 77 
3 57 78 77 
3 57 58 78 
3 58 79 78 
3 58 59 79 
3 59 80 79 
3 59 60 80 
3 60 61 80 
3 60 41 61 
3 61 82 81 
3 61 62 82 
3 62 83 82 
3 62 63 83 
3 63 84 83 
3 63 64 84 
3 64 85 84 
3 64 65 85 
3 65 86 85 
3 65 66 86 
3 66 87 86 
3 66 67 87 
3 67 88 87 
3 67 68 88 
3 68 89 88 
3 68 69 89 
3 69 90 89 
3 69 70 90 
3 70 91 90 
3 70 71 91 
3 71 92 91 
3 71 72 92 
3 72 93 92 
3 72 73 93 
3 73 94 93 
3 73 74 94 
3 74 95 94 
3 74 75 95 
3 75 96 95 
3 75 76 96 
3 76 97 96 
3 76 77 97 
3 77 98 97 
3 77 78 98 
3 78 99 98 
3 78 79 99 
3 79 100 99 
3 79 80 100 
3 80 81 100 
3 80 61 81 
3 81 102 101 
3 81 82 102 
3 82 103 102 
3 82 83 103 
3 83 104 103 
3 83 84 104 
3 84 105 104 
3 84 85 105 
3 85 106 105 
3 85 86 106 
3 86 107 106 
3 86 87 107 
3 87 108 107 
3 87 88 108 
3 88 109 108 
3 88 89 109 
3 89 110 109 
3 89 90 110 
3 90 111 110 
3 90 91 111 
3 91 112 111 
3 91 92 112 
3 92 113 112 
3 92 93 113 
3 93 114 113 
3 93 94 114 
3 94 115 114 
3 94 95 115 
3 95 116 115 
3 95 96 116 
3 96 117 116 
3 96 97 117 
3 97 118 117 
3 97 98 118 
3 98 119 118 
3 98 99 119 
3 99 120 119 
3 99 100 120 
3 100 101 120 
3 100 81 101 
3 101 122 121 
3 101 102 122 
3 102 123 122 
3 102 103 123 
3 103 124 123 
3 103 104 124 
3 104 125 124 
3 104 105 125 
3 105 126 125 
3 105 106 126 
3 106 127 126 
3 106 107 127 
3 107 128 127 
3 107 108 128 
3 108 129 128 
3 108 109 129 
3 109 130 129 
3 109 110 130 
3 110 131 130 
3 110 111 131 
3 111 132 131 
3 111 112 132 
3 112 133 132 
3 112 113 133 
3 113 134 133 
3 113 114 134 
3 114 135 134 
3 114 115 135 
3 115 136 135 
3 115 116 136 
3 116 137 136 
3 116 117 137 
3 117 138 137 
3 117 118 138 
3 118 139 138 
3 118 119 139 
3 119 140 139 
3 119 120 140 
3 120 121 140 
3 120 101 121 
3 121 142 141 
3 121 122 142 
3 122 143 142 
3 122 123 143 
3 123 144 143 
3 123 124 144 
3 124 145 144 
3 124 125 145 
3 125 146 145 
3 125 126 146 
3 126 147 146 
3 126 127 147 
3 127 148 147 
3 127 128 148 
3 128 149 148 
3 128 129 149 
3 129 150 149 
3 129 130 150 
3 130 151 150 
3 130 131 151 
3 131 152 151 
3 131 132 152 
3 132 153 152 
3 132 133 153 
3 133 154 153 
3 133 134 154 
3 134 155 154 
3 134 135 155 
3 135 156 155 
3 135 136 156 
3 136 157 156 
3 136 137 157 
3 137 158 157 
3 137 138 158 
3 138 159 158 
3 138 139 159 
3 139 160 159 
3 139 140 160 
3 140 141 160 
3 140 121 141 
3 141 162 161 
3 141 142 162 
3 142 163 162 
3 142 143 163 
3 143 164 163 
3 143 144 164 
3 144 165 164 
3 144 145 165 
3 145 166 165 
3 145 146 166 
3 146 167 166 
3 146 147 167 
3 147 168 167 
3 147 148 168 
3 148 169 168 
3 148 149 169 
3 149 170 169 
3 149 150 170 
3 150 171 170 
3 150 151 171 
3 151 172 171 
3 151 152 172 
3 152 173 172 
3 152 153 173 
3 153 174 173 
3 153 154 174 
3 154 175 174 
3 154 155 175 
3 155 176 175 
3 155 156 176 
3 156 177 176 
3 156 157 177 
3 157 178 177 
3 157 158 178 
3 158 179 178 
3 158 159 179 
3 159 180 179 
3 159 160 180 
3 160 161 180 
3 160 141 161 
3 161 182 181 
3 161 162 182 
3 162 183 182 
3 162 163 183 
3 163 184 183 
3 163 164 184 
3 164 185 184 
3 164 165 185 
3 165 186 185 
3 165 166 186 
3 166 187 186 
3 166 167 187 
3 167 188 187 
3 167 168 188 
3 168 189 188 
3 168 169 189 
3 169 190 189 
3 169 170 190 
3 170 191 190 
3 170 171 191 
3 171 192 191 
3 171 172 192 
3 172 193 192 
3 172 173 193 
3 173 194 193 
3 173 174 194 
3 174 195 194 
3 174 175 195 
3 175 196 195 
3 175 176 196 
3 176 197 196 
3 176 177 197 
3 177 198 197 
3 177 178 198 
3 178 199 198 
3 178 179 199 
3 179 200 199 
3 179 180 200 
3 180 181 200 
3 180 161 181 
3 201 181 182 
3 201 182 183 
3 201 183 184 
3 201 184 185 
3 201 185 186 
3 201 186 187 
3 201 187 188 
3 201 188 189 
3 201 189 190 
3 201 190 191 
3 201 191 192 
3 201 192 193 
3 201 193 194 
3 201 194 195 
3 201 195 196 
3 201 196 197 
3 201 197 198 
3 201 198 199 
3 201 199 200 
3 201 200 181 
